<svg width="48" height="48" viewBox="0 0 48 48" fill="none" xmlns="http://www.w3.org/2000/svg">
<g clip-path="url(#clip0_1_1030)">
<path d="M24 47C36.7025 47 47 36.7025 47 24C47 11.2975 36.7025 1 24 1C11.2975 1 1 11.2975 1 24C1 36.7025 11.2975 47 24 47Z" stroke="black" stroke-width="2"/>
<path d="M16 14.81L28.78 6.6C28.2662 6.21461 27.6423 6.0043 27 6H5C4.35774 6.0043 3.73381 6.21461 3.22 6.6L16 14.81ZM16.54 16.84L16.37 16.92H16.29C16.1979 16.9611 16.1001 16.9881 16 17C15.917 17.0105 15.833 17.0105 15.75 17H15.67L15.5 16.92L2.1 8.26C2.03598 8.50154 2.00238 8.75013 2 9V23C2 23.7956 2.31607 24.5587 2.87868 25.1213C3.44129 25.6839 4.20435 26 5 26H27C27.7956 26 28.5587 25.6839 29.1213 25.1213C29.6839 24.5587 30 23.7956 30 23V9C29.9976 8.75013 29.964 8.50154 29.9 8.26L16.54 16.84Z" fill="black"/>
</g>
<defs>
<clipPath id="clip0_1_1030">
<rect width="48" height="48" fill="white"/>
</clipPath>
</defs>
</svg>
